<?xml version="1.0" standalone="no"?>
<!DOCTYPE svg PUBLIC "-//W3C//DTD SVG 20010904//EN"
 "http://www.w3.org/TR/2001/REC-SVG-20010904/DTD/svg10.dtd">
<svg version="1.0" xmlns="http://www.w3.org/2000/svg"
 width="1024.000000pt" height="1024.000000pt" viewBox="0 0 1024.000000 1024.000000"
 preserveAspectRatio="xMidYMid meet">
<metadata>
Created by potrace 1.16, written by Peter Selinger 2001-2019
</metadata>
<g transform="translate(0.000000,1024.000000) scale(0.100000,-0.100000)"
fill="#000000" stroke="none">
<path d="M4935 7900 c-292 -56 -516 -98 -989 -190 -224 -44 -417 -80 -428 -80
-11 0 -35 -15 -54 -34 l-34 -34 0 -224 0 -224 -272 -67 c-583 -145 -888 -225
-902 -236 -27 -22 -38 -75 -24 -109 7 -17 105 -125 217 -239 113 -114 227
-231 254 -260 l50 -51 -181 -275 c-201 -306 -212 -325 -212 -361 0 -52 44 -81
210 -137 85 -28 162 -55 170 -60 14 -7 18 -288 20 -1507 l0 -152 33 -34 c18
-18 70 -50 117 -71 47 -21 234 -106 415 -190 182 -84 533 -246 780 -360 248
-114 520 -240 605 -280 361 -168 354 -165 407 -165 41 0 76 12 189 64 124 58
1512 698 1839 849 72 33 163 74 203 92 89 40 119 66 133 118 7 27 10 297 8
835 -2 677 0 795 12 802 8 4 84 31 169 60 165 56 210 85 210 136 0 36 -9 50
-209 355 -100 150 -181 278 -181 285 0 6 28 38 63 71 34 33 151 150 260 260
l197 200 0 47 c0 89 52 70 -720 257 -195 48 -206 52 -233 84 -33 40 -49 44
-212 47 l-120 3 -5 227 -5 228 -26 25 c-19 20 -48 31 -120 45 -52 11 -206 45
-344 75 -678 149 -956 206 -1015 210 -48 3 -120 -6 -275 -35z m430 -95 c93
-20 171 -37 173 -39 1 -2 -32 -9 -75 -15 -85 -12 -147 -28 -123 -31 8 -1 4 -6
-10 -11 -35 -12 37 -3 182 23 l117 21 128 -27 c127 -28 174 -46 119 -46 -33 0
-389 -69 -396 -77 -3 -3 7 -4 22 -1 15 3 29 1 30 -3 2 -5 75 5 163 22 88 17
185 36 216 42 50 9 76 6 265 -32 115 -24 241 -50 279 -59 l70 -16 -60 -12
c-33 -6 -139 -26 -235 -43 -96 -18 -438 -84 -760 -148 -568 -112 -587 -115
-645 -103 -47 9 -286 68 -472 116 -13 4 -34 3 -48 0 l-25 -6 0 -300 c0 -203
-3 -300 -10 -300 -6 0 -76 19 -155 41 l-145 42 0 293 0 294 28 5 c15 4 54 12
87 19 33 8 150 31 259 52 137 26 192 41 175 45 l-24 7 24 1 c13 1 22 3 19 6
-3 3 -36 0 -74 -7 -56 -10 -64 -14 -44 -20 17 -5 12 -6 -16 -3 -41 5 -184 -16
-367 -53 l-88 -18 -107 28 c-59 16 -134 35 -167 42 -48 10 -55 14 -35 19 14 3
187 36 385 72 794 148 1032 193 1075 203 70 16 85 14 265 -23z m-1734 -299
c46 -13 113 -32 149 -41 36 -9 82 -21 103 -26 l37 -10 0 -310 0 -309 23 -10
c65 -28 279 -83 327 -84 l55 -1 3 304 c2 282 4 303 20 299 9 -2 126 -31 259
-64 l243 -59 -2 -380 c-1 -209 -3 -350 -5 -312 -4 63 -5 67 -23 57 -15 -8 -20
-7 -20 2 0 8 -3 9 -8 3 -11 -15 -46 -12 -54 5 -4 8 -7 -14 -8 -50 -1 -75 -7
-150 -21 -270 -9 -80 -12 -87 -48 -122 -62 -58 -87 -59 -301 -5 -102 26 -190
47 -195 47 -6 0 -10 -17 -10 -37 0 -31 -4 -38 -25 -44 -23 -7 -11 -13 18 -10
6 1 12 -5 12 -13 0 -11 35 -26 116 -52 63 -20 113 -38 111 -40 -3 -3 -340 98
-704 212 l-143 45 0 650 c0 357 2 649 4 649 2 0 41 -11 87 -24z m2583 -285
c13 -12 31 -40 41 -62 l18 -39 83 0 c77 0 84 -2 103 -26 16 -21 21 -41 21 -90
0 -99 19 -94 -347 -94 -372 0 -353 -5 -353 100 0 97 15 110 124 110 l84 0 22
46 c30 62 71 86 133 81 31 -3 56 -12 71 -26z m-494 -255 c0 -58 25 -97 75
-116 15 -6 159 -10 345 -10 l320 0 32 29 c28 25 33 37 38 88 l5 58 207 3 207
2 16 -23 c13 -21 15 -79 13 -448 l-3 -423 -80 -22 c-44 -12 -192 -53 -330 -90
l-250 -68 -182 0 c-125 -1 -186 -5 -194 -13 -16 -16 -3 -63 18 -63 41 0 -12
-20 -142 -54 -77 -21 -146 -39 -152 -41 -24 -8 -13 8 57 81 39 41 70 80 70 88
0 17 -27 46 -42 46 -6 0 -39 -27 -74 -60 -34 -33 -68 -60 -76 -60 -7 0 -30 18
-51 41 -41 43 -61 46 -83 14 -12 -18 -11 -25 6 -52 10 -17 42 -50 70 -72 29
-23 50 -41 48 -41 -2 0 -73 -20 -158 -45 -85 -25 -155 -45 -157 -45 -2 0 -3
294 -3 654 l0 655 26 20 c25 20 40 21 225 21 l199 0 0 -54z m-2697 -885 c78
-22 365 -99 637 -171 517 -137 539 -143 1077 -290 188 -51 352 -90 377 -90 25
0 188 39 373 89 331 90 753 203 1313 350 168 44 364 96 435 116 l130 36 19
-23 c11 -13 101 -145 201 -295 l182 -272 -211 -75 c-271 -96 -1106 -396 -1214
-435 -60 -23 -84 -28 -86 -19 -2 7 -12 44 -21 82 -20 85 -36 116 -76 150 -66
56 -103 67 -353 102 -288 41 -366 55 -553 96 l-141 31 -119 -26 c-207 -46
-373 -75 -573 -102 -228 -31 -273 -43 -329 -91 -50 -43 -73 -86 -96 -181 l-17
-72 -96 35 c-255 93 -713 257 -1197 429 -104 37 -194 71 -199 76 -9 8 372 589
387 589 4 0 72 -18 150 -39z m2340 -781 c137 -28 328 -60 425 -71 192 -21 214
-25 254 -45 57 -29 76 -63 103 -179 79 -345 84 -621 15 -890 -56 -220 -152
-394 -313 -562 -122 -127 -235 -209 -402 -292 -130 -65 -298 -131 -331 -131
-27 0 -208 72 -316 125 -208 103 -389 251 -515 420 -58 78 -152 257 -182 350
-65 199 -89 497 -57 715 22 145 63 335 83 378 31 66 91 86 354 117 74 9 243
38 375 65 131 26 243 49 248 49 5 1 122 -22 259 -49z"/>
<path d="M3785 6270 c-4 -6 6 -10 22 -10 25 0 72 -19 48 -20 -20 0 -13 -38 8
-48 l22 -11 -22 0 c-28 -1 -41 -21 -13 -21 12 0 19 -4 16 -8 -5 -8 87 -42 112
-42 7 0 12 10 12 23 0 12 2 36 4 54 3 25 1 30 -12 26 -9 -4 -13 -2 -9 4 4 5
-31 21 -81 36 -99 31 -99 31 -107 17z"/>
<path d="M5476 6274 c-26 -26 -19 -45 37 -97 87 -83 90 -84 134 -49 21 17 54
48 73 69 19 21 29 33 21 26 -10 -9 -18 -9 -34 0 -26 15 -47 33 -44 39 1 2 -10
-8 -25 -24 -15 -15 -30 -28 -33 -28 -3 0 -23 18 -44 40 -41 43 -61 49 -85 24z"/>
<path d="M5942 6268 c-18 -18 -14 -46 8 -58 24 -13 746 -11 773 2 12 6 17 18
15 36 l-3 27 -390 3 c-296 2 -394 -1 -403 -10z"/>
<path d="M5525 4752 c-264 -258 -480 -464 -496 -473 -13 -7 -53 20 -180 121
-89 72 -166 129 -170 128 -4 -2 -72 -66 -152 -143 l-145 -140 92 -77 c302
-253 278 -236 327 -231 69 8 70 18 10 77 -50 48 -63 70 -43 72 4 0 14 3 22 6
41 16 59 20 108 24 29 3 68 0 87 -6 45 -15 74 -6 142 45 47 35 61 41 80 34 13
-5 23 -7 23 -4 0 2 23 -3 52 -11 28 -9 62 -14 74 -11 25 4 24 -3 -5 -36 -15
-18 -14 -19 16 -14 17 3 38 9 45 13 9 6 9 3 -1 -10 -8 -9 -10 -16 -5 -15 27 5
24 -5 -11 -43 -22 -23 95 90 260 251 165 162 301 299 303 305 2 10 -268 267
-286 273 -4 1 -70 -59 -147 -135z"/>
</g>
</svg>
